HIERARCHY
ROOT Hips
{
	OFFSET 0.000000 0.000000 0.000000 
	CHANNELS 6 Xposition Yposition Zposition Zrotation Yrotation Xrotation
	JOINT LeftUpLeg
	{
		OFFSET 1.363060 -1.794630 0.839290 
		CHANNELS 3 Zrotation Yrotation Xrotation
		JOINT LeftLeg
		{
			OFFSET 2.448110 -6.726130 0.000000 
			CHANNELS 3 Zrotation Yrotation Xrotation
			JOINT LeftFoot
			{
				OFFSET 2.562200 -7.039590 0.000000 
				CHANNELS 3 Zrotation Yrotation Xrotation
				JOINT LeftToeBase
				{
					OFFSET 0.157640 -0.433110 2.322550 
					CHANNELS 3 Zrotation Yrotation Xrotation
					End Site
					{
						OFFSET 0.000000 0.000000 0.000000 
					}
				}
			}
		}
	}
	JOINT RightUpLeg
	{
		OFFSET -1.305520 -1.794630 0.839290 
		CHANNELS 3 Zrotation Yrotation Xrotation
		JOINT RightLeg
		{
			OFFSET -2.542530 -6.985550 0.000000 
			CHANNELS 3 Zrotation Yrotation Xrotation
			JOINT RightFoot
			{
				OFFSET -2.568260 -7.056230 0.000000 
				CHANNELS 3 Zrotation Yrotation Xrotation
				JOINT RightToeBase
				{
					OFFSET -0.164730 -0.452590 2.363150 
					CHANNELS 3 Zrotation Yrotation Xrotation
					End Site
					{
						OFFSET 0.000000 0.000000 0.000000 
					}
				}
			}
		}
	}
	JOINT Spine
	{
		OFFSET 0.028270 2.035590 -0.193380 
		CHANNELS 3 Zrotation Yrotation Xrotation
		JOINT Spine1
		{
			OFFSET 0.056720 2.048850 -0.042750 
			CHANNELS 3 Zrotation Yrotation Xrotation
			JOINT Neck1
			{
				OFFSET -0.054170 1.746240 0.172020 
				CHANNELS 3 Zrotation Yrotation Xrotation
				JOINT Head
				{
					OFFSET 0.104070 1.761360 -0.123970 
					CHANNELS 3 Zrotation Yrotation Xrotation
					End Site
					{
						OFFSET 0.000000 0.000000 0.000000 
					}
				}
			}
			JOINT LeftArm
			{
				OFFSET 3.362410 1.200890 -0.311210 
				CHANNELS 3 Zrotation Yrotation Xrotation
				JOINT LeftForeArm
				{
					OFFSET 4.983000 -0.000000 -0.000000 
					CHANNELS 3 Zrotation Yrotation Xrotation
					JOINT LeftHand
					{
						OFFSET 3.483560 -0.000000 -0.000000 
						CHANNELS 3 Zrotation Yrotation Xrotation
						JOINT LeftHandIndex1
						{
							OFFSET 0.715260 -0.000000 -0.000000 
							CHANNELS 3 Zrotation Yrotation Xrotation
							End Site
							{
								OFFSET 0.000000 0.000000 0.000000 
							}
						}
					}
				}
			}
			JOINT RightArm
			{
				OFFSET -3.136600 1.374050 -0.404650 
				CHANNELS 3 Zrotation Yrotation Xrotation
				JOINT RightForeArm
				{
					OFFSET -5.241900 -0.000000 -0.000000 
					CHANNELS 3 Zrotation Yrotation Xrotation
					JOINT RightHand
					{
						OFFSET -3.444170 -0.000000 -0.000000 
						CHANNELS 3 Zrotation Yrotation Xrotation
						JOINT RightHandIndex1
						{
							OFFSET -0.622530 -0.000000 -0.000000 
							CHANNELS 3 Zrotation Yrotation Xrotation
							End Site
							{
								OFFSET 0.000000 0.000000 0.000000 
							}
						}
					}
				}
			}
		}
	}
}
MOTION
Frames: 6
Frame Time: 0.041667
9.094356 16.765536 12.605484 178.571203 8.219271 -171.112854 -25.812116 -14.308856 -35.807891 4.280896 13.765873 39.484765 0.515711 -1.054490 -13.748359 7.582000 -15.803000 -51.042600 10.844802 13.735078 -0.391075 -12.745623 -16.939657 70.039259 -41.384838 26.093786 -158.977204 -3.954500 12.099600 -36.085400 0.363128 5.477886 -3.488750 5.118999 2.516450 4.449002 5.716260 -5.873100 21.080026 1.401800 -3.120200 7.923800 -48.931751 29.686208 36.316695 13.451037 -25.827546 -4.320881 -0.907449 1.038131 7.692533 -7.125000 0.000000 0.000000 48.573999 2.205573 19.467385 -21.895540 37.706612 -9.494108 1.582258 0.030637 3.528665 7.125000 0.000000 0.000000 
8.985095 16.794886 12.489260 177.555889 7.841916 -171.477688 -27.963350 -13.846062 -34.183001 4.073282 13.389462 38.421096 0.500217 -1.971703 -13.506216 7.344400 -15.615200 -50.165000 8.665257 18.140411 -8.698047 -11.256997 -17.238318 65.580223 -40.349527 23.817756 -155.321478 -3.638900 11.663700 -34.552600 0.347355 4.556959 -3.300269 4.623430 2.014896 4.596328 5.572079 -5.364859 20.882012 1.384000 -2.909300 7.680000 -52.767703 26.795211 32.581128 13.506433 -25.676851 -4.342669 -0.830235 1.158950 7.379383 -7.125000 0.000000 0.000000 50.745211 -0.676652 17.443575 -20.580410 36.830542 -9.064165 1.492810 0.008354 3.988088 7.125000 0.000000 0.000000 
8.895115 16.829807 12.418562 176.806507 7.853034 -172.147776 -29.679466 -12.827261 -32.527338 3.877470 13.033752 37.418061 0.486068 -2.358608 -13.292281 7.355100 -15.623800 -50.205000 5.894934 22.003037 -18.626106 -10.552099 -17.982212 63.707198 -39.898848 20.810729 -154.554006 -2.974800 10.654100 -31.122000 0.347985 3.718004 -3.074189 4.174295 1.586167 4.459522 5.440720 -4.687024 20.389697 1.408600 -2.614600 7.352200 -56.431394 23.373137 28.633188 13.756019 -25.686706 -4.417576 -0.710380 1.194235 9.595872 -7.125000 0.000000 0.000000 52.986481 -3.336294 15.360844 -19.263582 35.793338 -8.481309 1.420544 -0.130777 5.379435 7.125000 0.000000 0.000000 
8.832344 16.855944 12.381606 176.042290 7.543453 -173.216069 -31.299931 -12.123064 -30.677479 3.740549 12.752058 36.684455 0.471512 -2.444016 -13.059548 7.596700 -15.814500 -51.096800 2.909247 24.607254 -29.121639 -10.943053 -19.163026 65.273580 -40.491123 19.506838 -157.985965 -0.523300 4.635800 -12.872800 0.375631 2.717425 -2.791599 3.942585 1.089148 4.261015 4.777733 -3.250322 19.766417 1.377000 -0.764500 6.930200 -59.519059 19.720817 25.432012 14.292097 -26.053898 -4.641693 -0.621959 1.243802 11.570452 -7.125000 0.000000 0.000000 55.236622 -6.136960 13.930601 -18.435245 35.205984 -8.139370 1.345064 -0.236553 5.492578 7.125000 0.000000 0.000000 
8.800958 16.871262 12.358576 175.060080 7.001929 -174.774148 -33.095327 -11.594178 -28.478479 3.649900 12.513347 36.144558 0.454097 -2.478310 -12.780285 7.699900 -15.894000 -51.474400 0.111417 25.434556 -39.249673 -12.361114 -20.611383 70.171817 -42.180210 26.226926 -161.572815 -6.209800 -14.628600 45.817900 0.398730 1.721058 -2.414242 4.094195 0.598907 4.098766 4.556524 -2.473501 18.805499 1.294900 -0.480400 6.441500 -61.991364 15.900890 23.004655 15.225272 -26.914157 -5.066740 -0.567180 1.287558 12.662689 -7.125000 0.000000 0.000000 57.481471 -9.349910 12.743545 -18.044657 35.010756 -7.978046 1.282124 -0.333514 5.509919 7.125000 0.000000 0.000000 
8.797531 16.878224 12.340152 173.954642 6.220381 -176.495982 -34.946844 -11.341197 -26.138171 3.588074 12.306047 35.736182 0.442845 -2.486506 -12.577405 7.602900 -15.819200 -51.119300 -1.696929 25.062686 -47.185918 -17.845581 -22.590201 84.629231 -86.116602 74.007663 161.156227 -6.977500 -15.312900 48.789300 0.456887 0.714415 -1.992040 4.742466 0.085317 4.090017 4.299099 -1.711951 17.844938 1.192500 -0.201700 5.983000 -64.001192 11.690782 21.084256 16.629605 -28.267128 -5.685078 -0.511379 1.276723 11.817553 -7.125000 0.000000 0.000000 59.547253 -12.619483 11.444027 -17.711234 34.817135 -7.820139 1.230231 -0.442383 6.458063 7.125000 0.000000 0.000000 
